<svg id="Layer_1" data-name="Layer 1" xmlns="http://www.w3.org/2000/svg" viewBox="0 0 322.35 81.41"><defs><style>.cls-1{fill:#173960;}.cls-2{fill:#ec2970;}</style></defs><path class="cls-1" d="M290.35,313a5.83,5.83,0,0,1-5.82,6.05,5.65,5.65,0,0,1-4.57-1.94L262,295.7l-7.88,7.42V313a6,6,0,1,1-12,0V247.52a6,6,0,1,1,12,0v42.36L280,264a5.33,5.33,0,0,1,3.88-1.48,5.49,5.49,0,0,1,3.77,9.36l-16.78,16.67L289,309.06A6.18,6.18,0,0,1,290.35,313Z" transform="translate(-242.17 -237.58)"/><path class="cls-1" d="M345.84,313.17l-11.19-35.28-11.19,35.28a8.23,8.23,0,0,1-15.75,0l-13.36-43a7.45,7.45,0,0,1-.23-1.72,5.89,5.89,0,0,1,11.53-1.71l10.62,36.54,11.76-36a7,7,0,0,1,13.25,0l11.76,36,10.62-36.54a5.89,5.89,0,0,1,11.53,1.71,8,8,0,0,1-.23,1.72l-13.36,43a8.24,8.24,0,0,1-15.76,0Z" transform="translate(-242.17 -237.58)"/><path class="cls-1" d="M381.13,245A7.42,7.42,0,1,1,396,245a7.42,7.42,0,1,1-14.84,0ZM382.61,313V268.53a6,6,0,1,1,12,0V313a6,6,0,1,1-12,0Z" transform="translate(-242.17 -237.58)"/><path class="cls-1" d="M455.46,313a5.83,5.83,0,0,1-5.82,6.05,5.65,5.65,0,0,1-4.57-1.94L427.14,295.7l-7.88,7.42V313a6,6,0,1,1-12,0V247.52a6,6,0,1,1,12,0v42.36L445.07,264a5.33,5.33,0,0,1,3.88-1.48,5.49,5.49,0,0,1,3.77,9.36l-16.79,16.67,18.16,20.55A6.24,6.24,0,0,1,455.46,313Z" transform="translate(-242.17 -237.58)"/><path class="cls-2" d="M464.82,312.26V248.2a6.68,6.68,0,1,1,13.36,0v64.06a6.68,6.68,0,1,1-13.36,0Z" transform="translate(-242.17 -237.58)"/><path class="cls-2" d="M526.28,303.46a23.76,23.76,0,1,1,21.82-14.35L533,284.19l21.43,21.44a38.15,38.15,0,1,0-8,6.6l17,6.77L542,297.56A23.67,23.67,0,0,1,526.28,303.46Z" transform="translate(-242.17 -237.58)"/></svg>