<?xml version="1.0" encoding="UTF-8" standalone="no"?>
<svg
   xmlns:dc="http://purl.org/dc/elements/1.1/"
   xmlns:cc="http://creativecommons.org/ns#"
   xmlns:rdf="http://www.w3.org/1999/02/22-rdf-syntax-ns#"
   xmlns:svg="http://www.w3.org/2000/svg"
   xmlns="http://www.w3.org/2000/svg"
   xmlns:sodipodi="http://sodipodi.sourceforge.net/DTD/sodipodi-0.dtd"
   xmlns:inkscape="http://www.inkscape.org/namespaces/inkscape"
   version="1.1"
   id="svg2"
   xml:space="preserve"
   width="354.62668"
   height="201.01334"
   viewBox="0 0 354.62668 201.01334"
   sodipodi:docname="Otto Logo - Primary - 4C.eps"><metadata
     id="metadata8"><rdf:RDF><cc:Work
         rdf:about=""><dc:format>image/svg+xml</dc:format><dc:type
           rdf:resource="http://purl.org/dc/dcmitype/StillImage" /></cc:Work></rdf:RDF></metadata><defs
     id="defs6" /><sodipodi:namedview
     pagecolor="#ffffff"
     bordercolor="#666666"
     borderopacity="1"
     objecttolerance="10"
     gridtolerance="10"
     guidetolerance="10"
     inkscape:pageopacity="0"
     inkscape:pageshadow="2"
     inkscape:window-width="640"
     inkscape:window-height="480"
     id="namedview4" /><g
     id="g10"
     inkscape:groupmode="layer"
     inkscape:label="ink_ext_XXXXXX"
     transform="matrix(1.3333333,0,0,-1.3333333,0,201.01333)"><g
       id="g12"
       transform="scale(0.1)"><path
         d="M 848.102,1194.55 H 1775.6 v -102.2 H 848.102 v 102.2"
         style="fill:#525456;fill-opacity:1;fill-rule:nonzero;stroke:none"
         id="path14" /><path
         d="M 878.102,384.551 1159.5,1507.65 h 102.2 L 980.199,384.551"
         style="fill:#525456;fill-opacity:1;fill-rule:nonzero;stroke:none"
         id="path16" /><path
         d="M 1297.6,384.551 1579,1507.65 h 102.2 L 1399.8,384.551"
         style="fill:#525456;fill-opacity:1;fill-rule:nonzero;stroke:none"
         id="path18" /><path
         d="m 431,482.75 c -183.414,0 -332.1016,148.688 -332.1016,332.102 0,183.414 148.6876,332.098 332.1016,332.098 183.414,0 332.102,-148.684 332.102,-332.098 v 0 C 763.156,631.492 614.559,482.809 431.199,482.75 c -0.066,0 -0.133,0 -0.199,0 z m 0,763.2 C 192.91,1245.89 -0.0546875,1052.84 0,814.75 c 0.0546875,-238.09 193.109,-431.059 431.199,-431 238.051,0.059 431,193.051 431,431.102 C 862.145,1052.96 669.105,1245.95 431,1245.95"
         style="fill:#4dade2;fill-opacity:1;fill-rule:nonzero;stroke:none"
         id="path20" /><path
         d="m 2158.8,482.75 c -183.41,0 -332.1,148.688 -332.1,332.102 0,183.414 148.69,332.098 332.1,332.098 183.41,0 332.1,-148.684 332.1,-332.098 v 0 c 0,-183.414 -148.69,-332.102 -332.1,-332.102 z m 0,763.2 c -238.09,0 -431.1,-193.01 -431.1,-431.098 0,-238.09 193.01,-431.102 431.1,-431.102 238.09,0 431.1,193.012 431.1,431.102 v 0 c 0,238.088 -193.01,431.098 -431.1,431.098"
         style="fill:#4dade2;fill-opacity:1;fill-rule:nonzero;stroke:none"
         id="path22" /><g
         id="g24"
         transform="scale(10)"></g></g></g></svg>
