<svg xmlns="http://www.w3.org/2000/svg" version="1.2" baseProfile="tiny-ps" viewBox="0 0 102 82" width="102" height="82">
	<style>
		tspan { white-space:pre }
		.shp1 { fill: #ec2970 } 
	</style>
	<path id="Layer" class="shp1" d="M1.65 74.68L1.65 10.62C1.65 8.85 2.35 7.15 3.61 5.9C4.86 4.64 6.56 3.94 8.33 3.94C10.1 3.94 11.8 4.64 13.05 5.9C14.31 7.15 15.01 8.85 15.01 10.62L15.01 74.68C15.01 76.45 14.31 78.15 13.05 79.4C11.8 80.66 10.1 81.36 8.33 81.36C6.56 81.36 4.86 80.66 3.61 79.4C2.35 78.15 1.65 76.45 1.65 74.68Z"/>
	<path id="Layer" class="shp1" d="M67.38 65.51C68.79 65.25 70.17 64.87 71.51 64.37C72.85 63.87 74.14 63.24 75.37 62.51C76.6 61.77 77.76 60.93 78.83 59.98L100.26 81.42L83.26 74.65C66.19 85.19 43.88 80.72 32.19 64.41C20.51 48.1 23.45 25.53 38.93 12.77C54.4 0 77.12 1.4 90.91 15.97C104.7 30.54 104.86 53.3 91.26 68.05L69.83 46.61L84.93 51.53C89.09 41.89 86.43 30.67 78.39 23.92C70.34 17.17 58.83 16.5 50.06 22.27C41.29 28.04 37.34 38.88 40.35 48.93C43.36 58.99 52.61 65.88 63.11 65.88C64.54 65.89 65.97 65.76 67.38 65.51Z"/>
</svg>